STARTFONT 2.1
COMMENT converted Oberon font (using FontToBDF by R.Crelier 10.1.91)
FONT Times24b.Scn.Fnt
SIZE 24 75 75
FONTBOUNDINGBOX  26 26 0 -6
STARTPROPERTIES 3
FONT_ASCENT 20
FONT_DESCENT 6
DEFAULT_CHAR 0
ENDPROPERTIES
CHARS 122
STARTCHAR c0
ENCODING -1 0
SWIDTH 0 0
DWIDTH 0 0
BBX 0 0 0 0
BITMAP
ENDCHAR
STARTCHAR c9
ENCODING -1 9
SWIDTH 645 0
DWIDTH 20 0
BBX 0 0 0 0
BITMAP
ENDCHAR
STARTCHAR c32
ENCODING -1 32
SWIDTH 161 0
DWIDTH 5 0
BBX 0 0 0 0
BITMAP
ENDCHAR
STARTCHAR c33
ENCODING -1 33
SWIDTH 258 0
DWIDTH 8 0
BBX 4 17 2 0
BITMAP
60
F0
F0
F0
F0
60
F0
60
60
60
60
00
00
60
F0
F0
60
ENDCHAR
STARTCHAR c34
ENCODING -1 34
SWIDTH 387 0
DWIDTH 12 0
BBX 9 8 1 9
BITMAP
6300
F780
7380
3180
2100
2100
4200
8400
ENDCHAR
STARTCHAR c35
ENCODING -1 35
SWIDTH 516 0
DWIDTH 16 0
BBX 13 18 1 0
BITMAP
0630
0630
0630
0C60
0C60
7FF8
7FF8
7FF8
18C0
18C0
FFF0
FFF0
FFF0
3180
3180
6300
6300
6300
ENDCHAR
STARTCHAR c36
ENCODING -1 36
SWIDTH 548 0
DWIDTH 17 0
BBX 13 21 2 -2
BITMAP
0300
0300
0FE8
3378
6318
6308
E308
F300
FF00
7FC0
7FF0
1FF0
07F8
8678
8638
8630
C630
F660
BF80
0600
0600
ENDCHAR
STARTCHAR c37
ENCODING -1 37
SWIDTH 741 0
DWIDTH 23 0
BBX 19 17 2 0
BITMAP
3C0400
660C00
E70800
E71800
E71000
E73000
E72000
666000
3C4780
00CCC0
009CE0
019CE0
011CE0
031CE0
021CE0
060CC0
040780
ENDCHAR
STARTCHAR c38
ENCODING -1 38
SWIDTH 645 0
DWIDTH 20 0
BBX 18 17 1 0
BITMAP
03F000
063800
063800
0E3800
0F3000
0F6000
078000
078FC0
0BC300
39E300
71E200
F0F400
F07800
F07C00
F87E40
7F9F80
3E0F00
ENDCHAR
STARTCHAR c39
ENCODING -1 39
SWIDTH 225 0
DWIDTH 7 0
BBX 4 8 1 9
BITMAP
60
F0
70
30
20
20
40
80
ENDCHAR
STARTCHAR c40
ENCODING -1 40
SWIDTH 322 0
DWIDTH 10 0
BBX 7 23 2 -5
BITMAP
06
0C
18
30
30
60
60
60
C0
C0
C0
C0
C0
C0
C0
60
60
60
30
30
18
0C
06
ENDCHAR
STARTCHAR c41
ENCODING -1 41
SWIDTH 322 0
DWIDTH 10 0
BBX 7 23 0 -5
BITMAP
C0
60
30
18
18
0C
0C
0C
06
06
06
06
06
06
06
0C
0C
0C
18
18
30
60
C0
ENDCHAR
STARTCHAR c42
ENCODING -1 42
SWIDTH 451 0
DWIDTH 14 0
BBX 12 12 1 0
BITMAP
0600
0600
C630
E670
34C0
0F00
0F00
32C0
E670
C630
0600
0600
ENDCHAR
STARTCHAR c43
ENCODING -1 43
SWIDTH 483 0
DWIDTH 15 0
BBX 12 12 1 0
BITMAP
0600
0600
0600
0600
0600
FFF0
FFF0
0600
0600
0600
0600
0600
ENDCHAR
STARTCHAR c44
ENCODING -1 44
SWIDTH 258 0
DWIDTH 8 0
BBX 4 9 2 -5
BITMAP
60
F0
F0
70
30
20
20
40
80
ENDCHAR
STARTCHAR c45
ENCODING -1 45
SWIDTH 193 0
DWIDTH 6 0
BBX 6 2 0 6
BITMAP
FC
FC
ENDCHAR
STARTCHAR c46
ENCODING -1 46
SWIDTH 258 0
DWIDTH 8 0
BBX 4 4 2 0
BITMAP
60
F0
F0
60
ENDCHAR
STARTCHAR c47
ENCODING -1 47
SWIDTH 451 0
DWIDTH 14 0
BBX 11 17 1 0
BITMAP
00E0
00C0
01C0
0180
0380
0300
0700
0600
0E00
0C00
1C00
1800
3800
3000
7000
6000
E000
ENDCHAR
STARTCHAR c48
ENCODING -1 48
SWIDTH 451 0
DWIDTH 14 0
BBX 12 17 1 0
BITMAP
1F80
39C0
70E0
70E0
F0F0
F0F0
F0F0
F0F0
F0F0
F0F0
F0F0
F0F0
F0F0
70E0
70E0
39C0
1F80
ENDCHAR
STARTCHAR c49
ENCODING -1 49
SWIDTH 451 0
DWIDTH 14 0
BBX 10 17 2 0
BITMAP
0600
1E00
FE00
1E00
1E00
1E00
1E00
1E00
1E00
1E00
1E00
1E00
1E00
1E00
1E00
3F00
FFC0
ENDCHAR
STARTCHAR c50
ENCODING -1 50
SWIDTH 451 0
DWIDTH 14 0
BBX 12 17 1 0
BITMAP
0F80
3FC0
63E0
C1E0
01E0
01E0
01C0
01C0
0380
0300
0600
0400
0C10
1010
3FF0
7FE0
FFE0
ENDCHAR
STARTCHAR c51
ENCODING -1 51
SWIDTH 451 0
DWIDTH 14 0
BBX 11 17 1 0
BITMAP
0F80
3FC0
67C0
03C0
0380
0300
0600
0F80
1FC0
03E0
01E0
01E0
01E0
01C0
C180
E300
7C00
ENDCHAR
STARTCHAR c52
ENCODING -1 52
SWIDTH 451 0
DWIDTH 14 0
BBX 13 17 0 0
BITMAP
01C0
03C0
03C0
07C0
0BC0
0BC0
13C0
33C0
23C0
43C0
FFF8
FFF8
FFF8
03C0
03C0
03C0
03C0
ENDCHAR
STARTCHAR c53
ENCODING -1 53
SWIDTH 451 0
DWIDTH 14 0
BBX 11 17 2 0
BITMAP
1FE0
1FC0
3FC0
2000
6000
7C00
FF00
FF80
1F80
07C0
03C0
01C0
0180
0180
C100
E600
7800
ENDCHAR
STARTCHAR c54
ENCODING -1 54
SWIDTH 451 0
DWIDTH 14 0
BBX 11 17 2 0
BITMAP
03C0
0E00
1C00
3800
7800
7000
F000
F780
F9C0
F1E0
F1E0
F1E0
F1E0
F1E0
71C0
71C0
1F00
ENDCHAR
STARTCHAR c55
ENCODING -1 55
SWIDTH 451 0
DWIDTH 14 0
BBX 11 17 1 0
BITMAP
7FE0
7FE0
7FC0
C0C0
80C0
0080
0180
0180
0100
0300
0300
0200
0600
0600
0400
0C00
0C00
ENDCHAR
STARTCHAR c56
ENCODING -1 56
SWIDTH 451 0
DWIDTH 14 0
BBX 11 17 1 0
BITMAP
1F00
71C0
E0E0
E0E0
E0E0
F0C0
FD00
7E00
3F80
0FC0
17E0
61E0
E0E0
E0E0
E0E0
71C0
1F00
ENDCHAR
STARTCHAR c57
ENCODING -1 57
SWIDTH 451 0
DWIDTH 14 0
BBX 11 17 1 0
BITMAP
1F00
71C0
71C0
F1E0
F1E0
F1E0
F1E0
F1E0
73E0
3DE0
01E0
01C0
03C0
0380
0700
0E00
7800
ENDCHAR
STARTCHAR c58
ENCODING -1 58
SWIDTH 290 0
DWIDTH 9 0
BBX 4 12 3 0
BITMAP
60
F0
F0
60
00
00
00
00
60
F0
F0
60
ENDCHAR
STARTCHAR c59
ENCODING -1 59
SWIDTH 290 0
DWIDTH 9 0
BBX 4 17 3 -5
BITMAP
60
F0
F0
60
00
00
00
00
60
F0
F0
70
30
20
20
40
80
ENDCHAR
STARTCHAR c60
ENCODING -1 60
SWIDTH 516 0
DWIDTH 16 0
BBX 13 12 1 0
BITMAP
0018
00F8
03E0
0F00
3C00
F000
F000
3C00
0F00
03E0
00F8
0018
ENDCHAR
STARTCHAR c61
ENCODING -1 61
SWIDTH 483 0
DWIDTH 15 0
BBX 11 7 2 3
BITMAP
FFE0
FFE0
0000
0000
0000
FFE0
FFE0
ENDCHAR
STARTCHAR c62
ENCODING -1 62
SWIDTH 516 0
DWIDTH 16 0
BBX 13 12 2 0
BITMAP
C000
F800
3E00
0780
01E0
0078
0078
01E0
0780
3E00
F800
C000
ENDCHAR
STARTCHAR c63
ENCODING -1 63
SWIDTH 387 0
DWIDTH 12 0
BBX 9 17 2 0
BITMAP
1F00
6380
E380
E380
4380
0300
0600
0400
0C00
0C00
0C00
0000
0000
0C00
1E00
1E00
0C00
ENDCHAR
STARTCHAR c64
ENCODING -1 64
SWIDTH 838 0
DWIDTH 26 0
BBX 21 19 2 -2
BITMAP
007F80
01C0E0
070070
0C0030
1C1F38
386718
30E718
71C718
71C610
E38E30
E38E30
E38E20
E31C40
E32CC0
61CF00
600000
300000
1C0C00
07F000
ENDCHAR
STARTCHAR c65
ENCODING -1 65
SWIDTH 548 0
DWIDTH 17 0
BBX 17 17 0 0
BITMAP
01C000
01C000
01E000
03E000
02E000
02F000
04F000
047000
047800
087800
083C00
0FFC00
103C00
101E00
301E00
301E00
FC7F80
ENDCHAR
STARTCHAR c66
ENCODING -1 66
SWIDTH 612 0
DWIDTH 19 0
BBX 15 17 2 0
BITMAP
FFE0
3C78
3C3C
3C3C
3C3C
3C3C
3C38
3C60
3FF0
3C3C
3C1E
3C1E
3C1E
3C1E
3C1E
3C3C
FFF0
ENDCHAR
STARTCHAR c67
ENCODING -1 67
SWIDTH 580 0
DWIDTH 18 0
BBX 14 17 3 0
BITMAP
07F4
1C3C
380C
7804
7004
F000
F000
F000
F000
F000
F000
F000
7000
7800
3804
1C18
07E0
ENDCHAR
STARTCHAR c68
ENCODING -1 68
SWIDTH 677 0
DWIDTH 21 0
BBX 17 17 2 0
BITMAP
FFF000
3C1C00
3C0E00
3C0F00
3C0700
3C0780
3C0780
3C0780
3C0780
3C0780
3C0780
3C0780
3C0700
3C0F00
3C0E00
3C1C00
FFF000
ENDCHAR
STARTCHAR c69
ENCODING -1 69
SWIDTH 548 0
DWIDTH 17 0
BBX 15 17 1 0
BITMAP
FFFC
3C1C
3C04
3C04
3C04
3C20
3C20
3C60
3FE0
3C60
3C20
3C20
3C02
3C02
3C06
3C1C
FFFC
ENDCHAR
STARTCHAR c70
ENCODING -1 70
SWIDTH 516 0
DWIDTH 16 0
BBX 14 17 2 0
BITMAP
FFFC
3C1C
3C04
3C04
3C04
3C20
3C20
3C60
3FE0
3C60
3C20
3C20
3C00
3C00
3C00
3C00
FF00
ENDCHAR
STARTCHAR c71
ENCODING -1 71
SWIDTH 645 0
DWIDTH 20 0
BBX 17 17 3 0
BITMAP
07F400
1C3C00
380C00
780400
700400
F00000
F00000
F00000
F00000
F07F80
F01E00
F01E00
701E00
781E00
381E00
1C3800
07E000
ENDCHAR
STARTCHAR c72
ENCODING -1 72
SWIDTH 677 0
DWIDTH 21 0
BBX 18 17 2 0
BITMAP
FF3FC0
3C0F00
3C0F00
3C0F00
3C0F00
3C0F00
3C0F00
3C0F00
3FFF00
3C0F00
3C0F00
3C0F00
3C0F00
3C0F00
3C0F00
3C0F00
FF3FC0
ENDCHAR
STARTCHAR c73
ENCODING -1 73
SWIDTH 354 0
DWIDTH 11 0
BBX 8 17 2 0
BITMAP
FF
3C
3C
3C
3C
3C
3C
3C
3C
3C
3C
3C
3C
3C
3C
3C
FF
ENDCHAR
STARTCHAR c74
ENCODING -1 74
SWIDTH 419 0
DWIDTH 13 0
BBX 11 17 1 0
BITMAP
1FE0
0780
0780
0780
0780
0780
0780
0780
0780
0780
0780
0780
0780
E700
E700
F600
7800
ENDCHAR
STARTCHAR c75
ENCODING -1 75
SWIDTH 612 0
DWIDTH 19 0
BBX 17 17 2 0
BITMAP
FF1F00
3C0C00
3C0800
3C1000
3C2000
3C2000
3C4000
3CC000
3DE000
3DF000
3CF000
3CF800
3C7C00
3C3C00
3C3E00
3C1E00
FF7F80
ENDCHAR
STARTCHAR c76
ENCODING -1 76
SWIDTH 483 0
DWIDTH 15 0
BBX 13 17 2 0
BITMAP
FF00
3C00
3C00
3C00
3C00
3C00
3C00
3C00
3C00
3C00
3C00
3C00
3C08
3C08
3C18
3C70
FFF0
ENDCHAR
STARTCHAR c77
ENCODING -1 77
SWIDTH 838 0
DWIDTH 26 0
BBX 23 17 2 0
BITMAP
FF01FE
3F01F8
2F01F8
2F8178
278378
278278
27C678
23C478
23C478
23EC78
21E878
21E878
20F078
20F078
20F078
206078
F861FE
ENDCHAR
STARTCHAR c78
ENCODING -1 78
SWIDTH 677 0
DWIDTH 21 0
BBX 20 17 1 0
BITMAP
7F07F0
1F01C0
1F8080
17C080
13C080
13E080
11F080
10F080
10F880
107C80
103C80
103E80
101E80
100F80
100F80
380780
FE0780
ENDCHAR
STARTCHAR c79
ENCODING -1 79
SWIDTH 709 0
DWIDTH 22 0
BBX 17 17 3 0
BITMAP
07F000
1C1C00
380E00
780F00
700700
F00780
F00780
F00780
F00780
F00780
F00780
F00780
700700
780F00
380E00
1C1C00
07F000
ENDCHAR
STARTCHAR c80
ENCODING -1 80
SWIDTH 548 0
DWIDTH 17 0
BBX 14 17 2 0
BITMAP
FFF0
3C78
3C3C
3C3C
3C3C
3C3C
3C3C
3C78
3FF0
3C00
3C00
3C00
3C00
3C00
3C00
3C00
FF00
ENDCHAR
STARTCHAR c81
ENCODING -1 81
SWIDTH 709 0
DWIDTH 22 0
BBX 19 21 3 -4
BITMAP
07F000
1C1C00
380E00
780F00
700700
F00780
F00780
F00780
F00780
F00780
F00780
F00780
700700
780F00
380E00
1C1C00
07F000
007C00
003E00
001F00
0007E0
ENDCHAR
STARTCHAR c82
ENCODING -1 82
SWIDTH 612 0
DWIDTH 19 0
BBX 17 17 2 0
BITMAP
FFF800
3C3C00
3C1E00
3C1E00
3C1E00
3C1E00
3C1C00
3C3800
3FC000
3DF000
3CF000
3CF800
3C7800
3C7C00
3C3C00
3C3E00
FF1F80
ENDCHAR
STARTCHAR c83
ENCODING -1 83
SWIDTH 548 0
DWIDTH 17 0
BBX 12 17 3 0
BITMAP
1FD0
70F0
6030
E010
E010
F000
FC00
7F80
7FE0
1FE0
03F0
00F0
8070
8070
C060
F0E0
BF80
ENDCHAR
STARTCHAR c84
ENCODING -1 84
SWIDTH 548 0
DWIDTH 17 0
BBX 16 17 1 0
BITMAP
FFFF
E3C7
83C1
83C1
03C0
03C0
03C0
03C0
03C0
03C0
03C0
03C0
03C0
03C0
03C0
03C0
0FF0
ENDCHAR
STARTCHAR c85
ENCODING -1 85
SWIDTH 677 0
DWIDTH 21 0
BBX 18 17 2 0
BITMAP
FF0FC0
3C0100
3C0100
3C0100
3C0100
3C0100
3C0100
3C0100
3C0100
3C0100
3C0100
3C0100
3C0100
1E0200
1E0200
0F0400
03F800
ENDCHAR
STARTCHAR c86
ENCODING -1 86
SWIDTH 548 0
DWIDTH 17 0
BBX 17 17 0 0
BITMAP
FF1F80
3C0600
3C0600
3C0400
1E0400
1E0800
1E0800
0F0800
0F1000
071000
079000
07A000
03A000
03E000
03C000
01C000
01C000
ENDCHAR
STARTCHAR c87
ENCODING -1 87
SWIDTH 838 0
DWIDTH 26 0
BBX 25 17 1 0
BITMAP
FF7F9F80
3C1E0600
3C1E0400
3C1E0400
1E0F0400
1E1F0800
1E1F0800
0E170800
0F279000
0F279000
0F279000
0743A000
07C3E000
07C3E000
0381C000
0381C000
0381C000
ENDCHAR
STARTCHAR c88
ENCODING -1 88
SWIDTH 548 0
DWIDTH 17 0
BBX 16 17 1 0
BITMAP
FFBF
3E0C
1F18
1F10
0FA0
07A0
07C0
03C0
03E0
01E0
03F0
04F0
04F8
0878
187C
303C
FCFF
ENDCHAR
STARTCHAR c89
ENCODING -1 89
SWIDTH 483 0
DWIDTH 15 0
BBX 15 17 0 0
BITMAP
FF7E
3C18
3E10
1E30
1F20
0F20
07C0
07C0
03C0
03C0
03C0
03C0
03C0
03C0
03C0
03C0
0FF0
ENDCHAR
STARTCHAR c90
ENCODING -1 90
SWIDTH 548 0
DWIDTH 17 0
BBX 14 17 2 0
BITMAP
7FFC
7878
60F8
40F0
41E0
03E0
03C0
0780
0780
0F00
1F00
1E04
3C04
3C0C
7818
7078
FFF8
ENDCHAR
STARTCHAR c91
ENCODING -1 91
SWIDTH 322 0
DWIDTH 10 0
BBX 5 23 3 -5
BITMAP
F8
C0
C0
C0
C0
C0
C0
C0
C0
C0
C0
C0
C0
C0
C0
C0
C0
C0
C0
C0
C0
C0
F8
ENDCHAR
STARTCHAR c92
ENCODING -1 92
SWIDTH 451 0
DWIDTH 14 0
BBX 11 17 1 0
BITMAP
E000
6000
7000
3000
3800
1800
1C00
0C00
0E00
0600
0700
0300
0380
0180
01C0
00C0
00E0
ENDCHAR
STARTCHAR c93
ENCODING -1 93
SWIDTH 322 0
DWIDTH 10 0
BBX 5 23 1 -5
BITMAP
F8
18
18
18
18
18
18
18
18
18
18
18
18
18
18
18
18
18
18
18
18
18
F8
ENDCHAR
STARTCHAR c94
ENCODING -1 94
SWIDTH 483 0
DWIDTH 15 0
BBX 12 14 2 0
BITMAP
0600
0F00
1F80
36C0
6660
C630
0600
0600
0600
0600
0600
0600
0600
0600
ENDCHAR
STARTCHAR c95
ENCODING -1 95
SWIDTH 483 0
DWIDTH 15 0
BBX 11 2 2 -2
BITMAP
FFE0
FFE0
ENDCHAR
STARTCHAR c96
ENCODING -1 96
SWIDTH 419 0
DWIDTH 13 0
BBX 4 5 4 14
BITMAP
E0
E0
60
30
10
ENDCHAR
STARTCHAR c97
ENCODING -1 97
SWIDTH 419 0
DWIDTH 13 0
BBX 12 13 1 0
BITMAP
0F80
33C0
73C0
63C0
03C0
1FC0
73C0
E3C0
E3C0
E3C0
FFC0
FBF0
71C0
ENDCHAR
STARTCHAR c98
ENCODING -1 98
SWIDTH 483 0
DWIDTH 15 0
BBX 13 19 1 0
BITMAP
F800
7800
7800
7800
7800
7800
78E0
7BF0
7CF8
7878
7878
7878
7878
7878
7878
7870
7870
78E0
1F80
ENDCHAR
STARTCHAR c99
ENCODING -1 99
SWIDTH 354 0
DWIDTH 11 0
BBX 10 13 1 0
BITMAP
0F80
39C0
71C0
7080
F000
F000
F000
F000
F000
F000
78C0
7F80
1E00
ENDCHAR
STARTCHAR c100
ENCODING -1 100
SWIDTH 483 0
DWIDTH 15 0
BBX 13 19 1 0
BITMAP
01F0
00F0
00F0
00F0
00F0
00F0
0FF0
38F0
70F0
70F0
F0F0
F0F0
F0F0
F0F0
F0F0
F0F0
F9F0
7EF8
38C0
ENDCHAR
STARTCHAR c101
ENCODING -1 101
SWIDTH 419 0
DWIDTH 13 0
BBX 11 13 1 0
BITMAP
0F80
39C0
70E0
70E0
F0E0
FFE0
F000
F000
F000
F000
7860
7FC0
1F00
ENDCHAR
STARTCHAR c102
ENCODING -1 102
SWIDTH 258 0
DWIDTH 8 0
BBX 7 18 1 0
BITMAP
1E
36
76
70
70
FE
78
78
78
78
78
78
78
78
78
78
78
FC
ENDCHAR
STARTCHAR c103
ENCODING -1 103
SWIDTH 419 0
DWIDTH 13 0
BBX 12 19 1 -6
BITMAP
3FF0
7380
E1C0
E1C0
E1C0
E1C0
7380
3F00
6000
C000
FFC0
FFE0
7FF0
20F0
4070
C070
C060
C0C0
7F00
ENDCHAR
STARTCHAR c104
ENCODING -1 104
SWIDTH 483 0
DWIDTH 15 0
BBX 13 18 1 0
BITMAP
F800
7800
7800
7800
7800
79E0
7BF0
7CF0
78F0
78F0
78F0
78F0
78F0
78F0
78F0
78F0
78F0
FDF8
ENDCHAR
STARTCHAR c105
ENCODING -1 105
SWIDTH 258 0
DWIDTH 8 0
BBX 6 19 1 0
BITMAP
30
78
78
30
00
00
F8
78
78
78
78
78
78
78
78
78
78
78
FC
ENDCHAR
STARTCHAR c106
ENCODING -1 106
SWIDTH 258 0
DWIDTH 8 0
BBX 6 25 0 -6
BITMAP
18
3C
3C
18
00
00
7C
3C
3C
3C
3C
3C
3C
3C
3C
3C
3C
3C
3C
3C
3C
3C
38
B8
E0
ENDCHAR
STARTCHAR c107
ENCODING -1 107
SWIDTH 483 0
DWIDTH 15 0
BBX 14 18 1 0
BITMAP
F800
7800
7800
7800
7800
78FC
7830
7860
7840
7880
7980
7FC0
7FC0
7BE0
79E0
79F0
78F0
FCFC
ENDCHAR
STARTCHAR c108
ENCODING -1 108
SWIDTH 258 0
DWIDTH 8 0
BBX 6 18 1 0
BITMAP
F8
78
78
78
78
78
78
78
78
78
78
78
78
78
78
78
78
FC
ENDCHAR
STARTCHAR c109
ENCODING -1 109
SWIDTH 774 0
DWIDTH 24 0
BBX 22 13 1 0
BITMAP
F8F0F0
79F9F8
7A7A78
7C7C78
787878
787878
787878
787878
787878
787878
787878
787878
FCFCFC
ENDCHAR
STARTCHAR c110
ENCODING -1 110
SWIDTH 516 0
DWIDTH 16 0
BBX 14 13 1 0
BITMAP
F8F0
79F8
7A78
7C78
7878
7878
7878
7878
7878
7878
7878
7878
FCFC
ENDCHAR
STARTCHAR c111
ENCODING -1 111
SWIDTH 451 0
DWIDTH 14 0
BBX 12 13 1 0
BITMAP
1F80
79E0
70E0
F0F0
F0F0
F0F0
F0F0
F0F0
F0F0
F0F0
70E0
79E0
1F80
ENDCHAR
STARTCHAR c112
ENCODING -1 112
SWIDTH 483 0
DWIDTH 15 0
BBX 13 19 1 -6
BITMAP
18E0
FBF0
7CF8
7878
7878
7878
7878
7878
7878
7870
7870
78E0
7F80
7800
7800
7800
7800
7800
FC00
ENDCHAR
STARTCHAR c113
ENCODING -1 113
SWIDTH 483 0
DWIDTH 15 0
BBX 13 19 1 -6
BITMAP
0F90
38F0
70F0
70F0
F0F0
F0F0
F0F0
F0F0
F0F0
F0F0
F9F0
7EF0
38F0
00F0
00F0
00F0
00F0
00F0
01F8
ENDCHAR
STARTCHAR c114
ENCODING -1 114
SWIDTH 322 0
DWIDTH 10 0
BBX 9 13 1 0
BITMAP
F980
7B80
7B80
7D80
7800
7800
7800
7800
7800
7800
7800
7800
FE00
ENDCHAR
STARTCHAR c115
ENCODING -1 115
SWIDTH 387 0
DWIDTH 12 0
BBX 10 13 1 0
BITMAP
0FC0
71C0
F040
F040
FC00
FE00
7F80
1FC0
0FC0
83C0
83C0
E380
FC00
ENDCHAR
STARTCHAR c116
ENCODING -1 116
SWIDTH 290 0
DWIDTH 9 0
BBX 9 18 0 0
BITMAP
0400
0400
0C00
1C00
3C00
FF80
3C00
3C00
3C00
3C00
3C00
3C00
3C00
3C00
3C00
3C80
3F00
1E00
ENDCHAR
STARTCHAR c117
ENCODING -1 117
SWIDTH 483 0
DWIDTH 15 0
BBX 13 13 1 0
BITMAP
F9F0
78F0
78F0
78F0
78F0
78F0
78F0
78F0
78F0
78F0
79F0
7EF8
3CC0
ENDCHAR
STARTCHAR c118
ENCODING -1 118
SWIDTH 387 0
DWIDTH 12 0
BBX 12 13 0 0
BITMAP
FEF0
7C60
7C60
3C40
3C40
3EC0
1E80
1E80
1F80
1F00
0F00
0E00
0E00
ENDCHAR
STARTCHAR c119
ENCODING -1 119
SWIDTH 580 0
DWIDTH 18 0
BBX 18 13 0 0
BITMAP
FDF9C0
7CF880
7CF880
7CF880
3C7900
3E7D00
3EFD00
1EBD00
1F3E00
1F3E00
0E1C00
0E1C00
0E1C00
ENDCHAR
STARTCHAR c120
ENCODING -1 120
SWIDTH 419 0
DWIDTH 13 0
BBX 13 13 0 0
BITMAP
FF78
3C30
3E20
1E40
1F80
0F00
0F80
0780
0FC0
13C0
23E0
61E0
F7F8
ENDCHAR
STARTCHAR c121
ENCODING -1 121
SWIDTH 387 0
DWIDTH 12 0
BBX 12 19 0 -6
BITMAP
FEF0
7C60
7C60
3C40
3C40
3EC0
1E80
1E80
1F80
1F00
0F00
0E00
0E00
0400
0400
0400
6800
7800
3000
ENDCHAR
STARTCHAR c122
ENCODING -1 122
SWIDTH 419 0
DWIDTH 13 0
BBX 11 13 1 0
BITMAP
FFE0
E3C0
C7C0
8780
8F80
0F00
1F00
1E00
3E20
3C20
7C60
78E0
FFE0
ENDCHAR
STARTCHAR c123
ENCODING -1 123
SWIDTH 322 0
DWIDTH 10 0
BBX 10 23 0 -5
BITMAP
01C0
0700
0600
0E00
0E00
0E00
0E00
0C00
0C00
1800
E000
E000
1800
0C00
0C00
0E00
0E00
0E00
0E00
0E00
0600
0700
01C0
ENDCHAR
STARTCHAR c124
ENCODING -1 124
SWIDTH 322 0
DWIDTH 10 0
BBX 2 23 4 -5
BITMAP
C0
C0
C0
C0
C0
C0
C0
C0
C0
C0
C0
C0
C0
C0
C0
C0
C0
C0
C0
C0
C0
C0
C0
ENDCHAR
STARTCHAR c125
ENCODING -1 125
SWIDTH 322 0
DWIDTH 10 0
BBX 10 23 0 -5
BITMAP
E000
3800
1800
1C00
1C00
1C00
1C00
0C00
0C00
0600
01C0
01C0
0600
0C00
0C00
1C00
1C00
1C00
1C00
1C00
1800
3800
E000
ENDCHAR
STARTCHAR c126
ENCODING -1 126
SWIDTH 516 0
DWIDTH 16 0
BBX 14 5 1 4
BITMAP
3E0C
7F0C
C78C
C3F8
C1F0
ENDCHAR
STARTCHAR c127
ENCODING -1 127
SWIDTH 32 0
DWIDTH 1 0
BBX 0 0 0 0
BITMAP
ENDCHAR
STARTCHAR c128
ENCODING -1 128
SWIDTH 548 0
DWIDTH 17 0
BBX 17 20 0 0
BITMAP
0E3800
0E3800
000000
01C000
01C000
01E000
03E000
02E000
02F000
04F000
047000
047800
087800
083C00
0FFC00
103C00
101E00
301E00
301E00
FC7F80
ENDCHAR
STARTCHAR c129
ENCODING -1 129
SWIDTH 709 0
DWIDTH 22 0
BBX 17 20 3 0
BITMAP
0E3800
0E3800
000000
07F000
1C1C00
380E00
780F00
700700
F00780
F00780
F00780
F00780
F00780
F00780
F00780
700700
780F00
380E00
1C1C00
07F000
ENDCHAR
STARTCHAR c130
ENCODING -1 130
SWIDTH 677 0
DWIDTH 21 0
BBX 18 20 2 0
BITMAP
039C00
039C00
000000
FF0FC0
3C0100
3C0100
3C0100
3C0100
3C0100
3C0100
3C0100
3C0100
3C0100
3C0100
3C0100
3C0100
1E0200
1E0200
0F0400
03F800
ENDCHAR
STARTCHAR c131
ENCODING -1 131
SWIDTH 419 0
DWIDTH 13 0
BBX 12 17 1 0
BITMAP
39C0
39C0
0000
0000
0F80
33C0
73C0
63C0
03C0
1FC0
73C0
F3C0
F3C0
F3C0
FFC0
FBF0
71C0
ENDCHAR
STARTCHAR c132
ENCODING -1 132
SWIDTH 451 0
DWIDTH 14 0
BBX 12 17 1 0
BITMAP
39C0
39C0
0000
0000
1F80
79E0
70E0
F0F0
F0F0
F0F0
F0F0
F0F0
F0F0
F0F0
70E0
79E0
1F80
ENDCHAR
STARTCHAR c133
ENCODING -1 133
SWIDTH 483 0
DWIDTH 15 0
BBX 13 17 1 0
BITMAP
1CE0
1CE0
0000
0000
F9F0
78F0
78F0
78F0
78F0
78F0
78F0
78F0
78F0
78F0
79F0
7EF8
3CC0
ENDCHAR
STARTCHAR c134
ENCODING -1 134
SWIDTH 419 0
DWIDTH 13 0
BBX 12 19 1 0
BITMAP
0E00
0E00
1B00
3180
2080
0000
0F80
33C0
73C0
63C0
03C0
1FC0
73C0
F3C0
F3C0
F3C0
FFC0
FBF0
71C0
ENDCHAR
STARTCHAR c135
ENCODING -1 135
SWIDTH 419 0
DWIDTH 13 0
BBX 11 19 1 0
BITMAP
0F00
0F00
1980
30C0
2040
0000
0F80
39C0
70E0
70E0
F0E0
FFE0
F000
F000
F000
F000
7860
7FC0
1F00
ENDCHAR
STARTCHAR c136
ENCODING -1 136
SWIDTH 258 0
DWIDTH 8 0
BBX 6 19 1 0
BITMAP
30
30
78
CC
84
00
F8
78
78
78
78
78
78
78
78
78
78
78
FC
ENDCHAR
STARTCHAR c137
ENCODING -1 137
SWIDTH 451 0
DWIDTH 14 0
BBX 12 19 1 0
BITMAP
0F00
0F00
1980
30C0
2040
0000
1F80
79E0
70E0
F0F0
F0F0
F0F0
F0F0
F0F0
F0F0
F0F0
70E0
79E0
1F80
ENDCHAR
STARTCHAR c138
ENCODING -1 138
SWIDTH 483 0
DWIDTH 15 0
BBX 13 19 1 0
BITMAP
0F00
0F00
1980
30C0
2040
0000
F9F0
78F0
78F0
78F0
78F0
78F0
78F0
78F0
78F0
78F0
79F0
7EF8
3CC0
ENDCHAR
STARTCHAR c139
ENCODING -1 139
SWIDTH 419 0
DWIDTH 13 0
BBX 12 19 1 0
BITMAP
1C00
1C00
0C00
0600
0200
0000
0F80
33C0
73C0
63C0
03C0
1FC0
73C0
F3C0
F3C0
F3C0
FFC0
FBF0
71C0
ENDCHAR
STARTCHAR c140
ENCODING -1 140
SWIDTH 419 0
DWIDTH 13 0
BBX 11 19 1 0
BITMAP
1C00
1C00
0C00
0600
0200
0000
0F80
39C0
70E0
70E0
F0E0
FFE0
F000
F000
F000
F000
7860
7FC0
1F00
ENDCHAR
STARTCHAR c141
ENCODING -1 141
SWIDTH 258 0
DWIDTH 8 0
BBX 6 19 1 0
BITMAP
E0
E0
60
30
10
00
F8
78
78
78
78
78
78
78
78
78
78
78
FC
ENDCHAR
STARTCHAR c142
ENCODING -1 142
SWIDTH 451 0
DWIDTH 14 0
BBX 12 19 1 0
BITMAP
1C00
1C00
0C00
0600
0200
0000
1F80
79E0
70E0
F0F0
F0F0
F0F0
F0F0
F0F0
F0F0
F0F0
70E0
79E0
1F80
ENDCHAR
STARTCHAR c143
ENCODING -1 143
SWIDTH 483 0
DWIDTH 15 0
BBX 13 19 1 0
BITMAP
1C00
1C00
0C00
0600
0200
0000
F9F0
78F0
78F0
78F0
78F0
78F0
78F0
78F0
78F0
78F0
79F0
7EF8
3CC0
ENDCHAR
STARTCHAR c144
ENCODING -1 144
SWIDTH 419 0
DWIDTH 13 0
BBX 11 19 1 0
BITMAP
0380
0380
0300
0600
0400
0000
0F80
39C0
70E0
70E0
F0E0
FFE0
F000
F000
F000
F000
7860
7FC0
1F00
ENDCHAR
STARTCHAR c145
ENCODING -1 145
SWIDTH 419 0
DWIDTH 13 0
BBX 11 17 1 0
BITMAP
39C0
39C0
0000
0000
0F80
39C0
70E0
70E0
F0E0
FFE0
F000
F000
F000
F000
7860
7FC0
1F00
ENDCHAR
STARTCHAR c146
ENCODING -1 146
SWIDTH 258 0
DWIDTH 8 0
BBX 8 17 0 0
BITMAP
E7
E7
00
00
7C
3C
3C
3C
3C
3C
3C
3C
3C
3C
3C
3C
7E
ENDCHAR
STARTCHAR c147
ENCODING -1 147
SWIDTH 354 0
DWIDTH 11 0
BBX 10 19 1 -6
BITMAP
0F80
39C0
71C0
7080
F000
F000
F000
F000
F000
F000
78C0
7F80
1E00
0000
0600
0E00
0600
0400
0800
ENDCHAR
STARTCHAR c148
ENCODING -1 148
SWIDTH 419 0
DWIDTH 13 0
BBX 12 19 1 0
BITMAP
0380
0380
0300
0600
0400
0000
0F80
33C0
73C0
63C0
03C0
1FC0
73C0
F3C0
F3C0
F3C0
FFC0
FBF0
71C0
ENDCHAR
STARTCHAR c149
ENCODING -1 149
SWIDTH 516 0
DWIDTH 16 0
BBX 14 18 1 0
BITMAP
1F10
2FD0
23E0
0000
0000
F8F0
79F8
7A78
7C78
7878
7878
7878
7878
7878
7878
7878
7878
FCFC
ENDCHAR
STARTCHAR c155
ENCODING -1 155
SWIDTH 483 0
DWIDTH 15 0
BBX 15 2 0 5
BITMAP
FFFE
FFFE
ENDCHAR
STARTCHAR c159
ENCODING -1 159
SWIDTH 451 0
DWIDTH 14 0
BBX 0 0 0 0
BITMAP
ENDCHAR
ENDFONT
